<svg width="183" height="24" viewBox="0 0 183 24" fill="none" xmlns="http://www.w3.org/2000/svg">
<path d="M38.8157 18.5459V5.40283H27.5366V18.5459H30.8623V8.31441H35.46V18.5459H38.8157Z" fill="white"/>
<path d="M52.6592 16.885C54.0216 15.542 54.6827 13.7172 54.6827 11.9743C54.6827 10.2212 54.0316 8.36561 52.6592 7.05335C51.347 5.77185 49.5039 5.10547 47.6007 5.10547C45.6975 5.10547 43.8443 5.77185 42.5421 7.05335C41.1798 8.37587 40.5187 10.2212 40.5187 11.9743C40.5187 13.7069 41.1698 15.542 42.5421 16.885C43.8543 18.1666 45.6975 18.8329 47.6007 18.8329C49.5039 18.8432 51.357 18.1666 52.6592 16.885ZM43.9745 12.0461C43.9745 11.1234 44.3051 10.1597 44.9963 9.46258C45.6874 8.75519 46.6691 8.41687 47.5907 8.41687C48.4722 8.41687 49.4538 8.7757 50.175 9.46258C50.7761 10.0572 51.2168 10.9594 51.2168 11.9846C51.2168 12.9893 50.7761 13.8915 50.175 14.5066C49.574 15.1217 48.7326 15.5318 47.5907 15.5318C46.4788 15.5318 45.6073 15.1012 44.9963 14.4861C44.5154 14.0145 43.9745 13.2046 43.9745 12.0461Z" fill="white"/>
<path d="M65.0001 17.3669C65.6913 16.6596 66.0619 15.6344 66.0619 14.5681C66.0619 13.4609 65.6813 12.4972 65.0802 11.8514C64.1186 10.8262 62.6561 10.5699 61.0234 10.5699H59.7111V8.30416H64.7196V5.40283H56.3655V18.5459H60.9032C62.4458 18.5459 63.9784 18.3819 65.0001 17.3669ZM59.7111 15.8804V13.1636H60.8631C61.2838 13.1636 61.9049 13.1841 62.2855 13.5224C62.4959 13.7172 62.6662 14.0555 62.6662 14.5066C62.6662 14.8962 62.5359 15.214 62.3356 15.4293C61.9349 15.8599 61.2237 15.8804 60.8531 15.8804H59.7111Z" fill="white"/>
<path d="M75.0271 8.30416V5.40283H67.7347V18.5459H75.0271V15.6446H71.0604V13.3789H74.8167V10.4878H71.0604V8.30416H75.0271Z" fill="white"/>
<path d="M89.8321 21.4985V15.9009H88.2895V5.40283H78.583V10.8057C78.583 12.6818 78.4328 14.0966 77.4711 15.1218C76.9903 15.6344 76.5095 15.8291 76.0087 15.9112V21.5088H79.0138V18.5562H86.827V21.5088H89.8321V21.4985ZM84.9438 15.9009H80.3961C80.937 15.3268 81.2776 14.7219 81.508 13.8915C81.7784 12.9073 81.8185 11.7591 81.8185 11.1337V8.04786H84.9438V15.9009Z" fill="white"/>
<path d="M95.6019 5.40283L90.6736 18.5459H94.1996L95.061 16.3417H99.7189L100.51 18.5459H104.076L99.2381 5.40283H95.6019ZM95.9826 13.7377L97.3849 9.48314L98.8274 13.7377H95.9826Z" fill="white"/>
<path d="M108.574 15.4498C108.153 15.0193 107.632 14.8245 107.151 14.8245C106.731 14.8245 106.21 14.9577 105.749 15.4396C105.499 15.6959 105.148 16.1675 105.148 16.8749C105.148 17.5823 105.499 18.0539 105.749 18.3102C106.21 18.7817 106.731 18.9253 107.151 18.9253C107.652 18.9253 108.153 18.7305 108.554 18.3102C108.904 17.9513 109.135 17.5207 109.135 16.8749C109.135 16.2187 108.904 15.7882 108.574 15.4498Z" fill="white"/>
<path d="M108.734 5.40283H105.539V14.076H108.734V5.40283Z" fill="white"/>
<path d="M9.16549 13.2354C9.76651 10.7749 10.9685 8.5707 12.4811 6.58181L12.9219 7.11491L13.4427 5.36182L11.7098 5.64887L12.1405 6.17173C9.79656 7.48399 4.3273 10.7646 2.62441 18.8227C2.34394 20.1657 2.0835 22.3084 2.0835 22.3084C2.0835 22.3084 6.36074 22.3597 8.68468 22.1034C8.65463 19.1713 8.4643 16.1059 9.16549 13.2354Z" fill="white"/>
<path d="M21.9572 11.2364C21.0356 7.00226 15.7667 7.13554 13.3125 9.38074L13.002 8.75536L12.0905 10.3342L13.8434 10.4675L13.5429 9.85233C15.4361 9.10393 18.4913 9.473 18.1507 12.2513C17.8101 14.9988 13.4427 15.983 11.0687 16.3419V21.8472C11.4494 21.878 23.6801 19.1714 21.9572 11.2364Z" fill="white"/>
<path d="M20.1441 4.16246C20.6649 3.42432 21.0957 2.60415 21.276 2.0608L21.7468 2.54264L22.1274 0.758789L20.4245 1.19963L20.9053 1.68147C20.8953 1.68147 19.9337 2.32735 18.1707 2.74768C16.6481 3.1065 14.805 3.13726 14.805 3.13726C14.7249 3.40381 13.8133 6.51018 13.5028 7.56614C16.1874 7.57639 18.9621 5.82329 20.1441 4.16246Z" fill="white"/>
<path d="M12.1906 4.25466L11.9402 4.91079L13.6631 4.62373L12.6213 3.11668L12.3809 3.77281C12.3609 3.75231 10.5879 2.37854 8.0636 1.74291C6.66123 1.39434 4.96836 1.48661 3.30554 1.84543V8.05816C8.21386 3.9881 12.2006 4.25466 12.1906 4.25466Z" fill="white"/>
<path d="M114.925 9.51393H115.996V15.9009H117.449V8.23242H114.925V9.51393Z" fill="white"/>
<path d="M123.339 8.05811C121.346 8.05811 120.504 9.42162 120.504 10.7851C120.504 12.3845 121.646 13.2764 122.858 13.2764C123.199 13.2764 123.459 13.1944 123.7 13.0918L121.927 15.4191L122.958 16.229L125.232 13.1021C125.713 12.446 126.174 11.6873 126.174 10.7134C126.164 9.30885 125.222 8.05811 123.339 8.05811ZM123.339 12.0769C122.558 12.0769 121.957 11.4823 121.957 10.6621C121.957 9.84196 122.548 9.24734 123.339 9.24734C124.12 9.24734 124.711 9.84196 124.711 10.6621C124.711 11.4823 124.12 12.0769 123.339 12.0769Z" fill="white"/>
<path d="M132.885 8.08887H131.573L127.867 13.871V14.5374H131.513V15.8907H132.875V14.5374H133.747V13.3379H132.875V8.08887H132.885ZM131.523 13.3482H129.6L131.523 10.3033V13.3482Z" fill="white"/>
<path d="M138.124 10.6827C137.934 10.6827 137.773 10.7032 137.633 10.7237L137.904 9.51393H140.388V8.23242H136.942L136.061 12.2615H136.151C136.692 11.8514 137.202 11.7694 137.583 11.7694C138.725 11.7694 139.276 12.5075 139.276 13.3072C139.276 14.1786 138.675 14.7937 137.773 14.7937C136.842 14.7937 136.221 14.2401 135.88 13.8198L135.399 15.1115C136.271 15.983 137.212 16.0855 137.803 16.0855C139.867 16.0855 140.728 14.7425 140.728 13.2867C140.718 11.6258 139.597 10.6827 138.124 10.6827Z" fill="white"/>
<path d="M148.742 11.9641H142.802V13.1636H148.742V11.9641Z" fill="white"/>
<path d="M154.632 13.1739C155.213 12.528 155.984 11.6771 155.984 10.4981C155.984 9.2781 155.093 8.05811 153.35 8.05811C151.867 8.05811 150.795 9.0628 150.725 10.6211H152.228C152.248 9.96498 152.659 9.33961 153.42 9.33961C154.051 9.33961 154.532 9.8112 154.532 10.4981C154.532 10.9492 154.301 11.4208 154.091 11.7283C153.821 12.1384 152.949 13.1636 152.819 13.3276L150.625 15.8906H156.044V14.5989H153.35L154.632 13.1739Z" fill="white"/>
<path d="M161.083 8.05811C159.59 8.05811 158.198 9.42163 158.198 12.0564C158.198 14.7014 159.6 16.0752 161.083 16.0752C162.575 16.0752 163.968 14.7117 163.968 12.0769C163.968 9.42163 162.565 8.05811 161.083 8.05811ZM161.083 14.7834C160.442 14.7834 159.65 14.0555 159.65 12.0564C159.65 10.0675 160.452 9.33961 161.083 9.33961C161.714 9.33961 162.515 10.0675 162.515 12.0564C162.515 14.0555 161.714 14.7834 161.083 14.7834Z" fill="white"/>
<path d="M169.587 13.1739C170.168 12.528 170.94 11.6771 170.94 10.4981C170.94 9.2781 170.048 8.05811 168.305 8.05811C166.823 8.05811 165.751 9.0628 165.681 10.6211H167.183C167.203 9.96498 167.614 9.33961 168.375 9.33961C169.006 9.33961 169.487 9.8112 169.487 10.4981C169.487 10.9492 169.257 11.4208 169.046 11.7283C168.776 12.1384 167.904 13.1636 167.774 13.3276L165.58 15.8906H171V14.5989H168.305L169.587 13.1739Z" fill="white"/>
<path d="M176.038 8.05811C174.546 8.05811 173.153 9.42163 173.153 12.0564C173.153 14.7014 174.556 16.0752 176.038 16.0752C177.531 16.0752 178.923 14.7117 178.923 12.0769C178.923 9.42163 177.531 8.05811 176.038 8.05811ZM176.038 14.7834C175.397 14.7834 174.606 14.0555 174.606 12.0564C174.606 10.0675 175.417 9.33961 176.038 9.33961C176.669 9.33961 177.471 10.0675 177.471 12.0564C177.471 14.0555 176.679 14.7834 176.038 14.7834Z" fill="white"/>
</svg>
